<mxfile host="app.diagrams.net" agent="Mozilla/5.0 (Windows NT 10.0; Win64; x64) AppleWebKit/537.36 (KHTML, like Gecko) Chrome/130.0.0.0 Safari/537.36" version="24.8.6">
  <diagram name="Page-1" id="c37626ed-c26b-45fb-9056-f9ebc6bb27b6">
    <mxGraphModel dx="3193" dy="1815" grid="1" gridSize="10" guides="1" tooltips="1" connect="1" arrows="1" fold="1" page="1" pageScale="1" pageWidth="1100" pageHeight="850" background="none" math="0" shadow="0">
      <root>
        <mxCell id="0" />
        <mxCell id="1" parent="0" />
        <mxCell id="sgeaB0DVFmvgLcvJb8wv-1" value="" style="shape=mxgraph.cisco.computers_and_peripherals.pc;sketch=0;html=1;pointerEvents=1;dashed=0;fillColor=#036897;strokeColor=#ffffff;strokeWidth=2;verticalLabelPosition=bottom;verticalAlign=top;align=center;outlineConnect=0;" vertex="1" parent="1">
          <mxGeometry x="380" y="790" width="78" height="70" as="geometry" />
        </mxCell>
        <mxCell id="sgeaB0DVFmvgLcvJb8wv-2" value="" style="shape=mxgraph.cisco.servers.fileserver;sketch=0;html=1;pointerEvents=1;dashed=0;fillColor=#036897;strokeColor=#ffffff;strokeWidth=2;verticalLabelPosition=bottom;verticalAlign=top;align=center;outlineConnect=0;" vertex="1" parent="1">
          <mxGeometry x="1170" y="194" width="69" height="92" as="geometry" />
        </mxCell>
        <mxCell id="sgeaB0DVFmvgLcvJb8wv-5" value="" style="image;html=1;image=img/lib/clip_art/networking/Firewall_02_128x128.png" vertex="1" parent="1">
          <mxGeometry x="499" y="200" width="80" height="80" as="geometry" />
        </mxCell>
        <mxCell id="sgeaB0DVFmvgLcvJb8wv-10" value="" style="shape=mxgraph.cisco.routers.router;sketch=0;html=1;pointerEvents=1;dashed=0;fillColor=#036897;strokeColor=#ffffff;strokeWidth=2;verticalLabelPosition=bottom;verticalAlign=top;align=center;outlineConnect=0;" vertex="1" parent="1">
          <mxGeometry x="499" y="-130" width="78" height="53" as="geometry" />
        </mxCell>
        <mxCell id="sgeaB0DVFmvgLcvJb8wv-35" style="edgeStyle=orthogonalEdgeStyle;rounded=0;orthogonalLoop=1;jettySize=auto;html=1;exitX=0.5;exitY=1;exitDx=0;exitDy=0;exitPerimeter=0;endArrow=none;endFill=0;" edge="1" parent="1" source="sgeaB0DVFmvgLcvJb8wv-13">
          <mxGeometry relative="1" as="geometry">
            <mxPoint x="538" y="630" as="targetPoint" />
          </mxGeometry>
        </mxCell>
        <mxCell id="sgeaB0DVFmvgLcvJb8wv-13" value="" style="shape=mxgraph.cisco.switches.layer_3_switch;sketch=0;html=1;pointerEvents=1;dashed=0;fillColor=#036897;strokeColor=#ffffff;strokeWidth=2;verticalLabelPosition=bottom;verticalAlign=top;align=center;outlineConnect=0;" vertex="1" parent="1">
          <mxGeometry x="506" y="450" width="64" height="64" as="geometry" />
        </mxCell>
        <mxCell id="sgeaB0DVFmvgLcvJb8wv-29" style="edgeStyle=orthogonalEdgeStyle;rounded=0;orthogonalLoop=1;jettySize=auto;html=1;exitX=1;exitY=0.5;exitDx=0;exitDy=0;exitPerimeter=0;endArrow=none;endFill=0;" edge="1" parent="1" source="sgeaB0DVFmvgLcvJb8wv-15">
          <mxGeometry relative="1" as="geometry">
            <mxPoint x="920" y="240" as="targetPoint" />
          </mxGeometry>
        </mxCell>
        <mxCell id="sgeaB0DVFmvgLcvJb8wv-15" value="" style="shape=mxgraph.cisco.switches.layer_3_switch;sketch=0;html=1;pointerEvents=1;dashed=0;fillColor=#036897;strokeColor=#ffffff;strokeWidth=2;verticalLabelPosition=bottom;verticalAlign=top;align=center;outlineConnect=0;" vertex="1" parent="1">
          <mxGeometry x="780" y="208" width="64" height="64" as="geometry" />
        </mxCell>
        <mxCell id="sgeaB0DVFmvgLcvJb8wv-16" value="" style="shape=mxgraph.cisco.switches.layer_3_switch;sketch=0;html=1;pointerEvents=1;dashed=0;fillColor=#036897;strokeColor=#ffffff;strokeWidth=2;verticalLabelPosition=bottom;verticalAlign=top;align=center;outlineConnect=0;" vertex="1" parent="1">
          <mxGeometry x="270" y="208" width="64" height="64" as="geometry" />
        </mxCell>
        <mxCell id="sgeaB0DVFmvgLcvJb8wv-37" style="edgeStyle=orthogonalEdgeStyle;rounded=0;orthogonalLoop=1;jettySize=auto;html=1;exitX=0.5;exitY=0;exitDx=0;exitDy=0;exitPerimeter=0;endArrow=none;endFill=0;" edge="1" parent="1" source="sgeaB0DVFmvgLcvJb8wv-17">
          <mxGeometry relative="1" as="geometry">
            <mxPoint x="538" y="680" as="targetPoint" />
          </mxGeometry>
        </mxCell>
        <mxCell id="sgeaB0DVFmvgLcvJb8wv-17" value="" style="shape=mxgraph.cisco.computers_and_peripherals.pc;sketch=0;html=1;pointerEvents=1;dashed=0;fillColor=#036897;strokeColor=#ffffff;strokeWidth=2;verticalLabelPosition=bottom;verticalAlign=top;align=center;outlineConnect=0;" vertex="1" parent="1">
          <mxGeometry x="499" y="790" width="78" height="70" as="geometry" />
        </mxCell>
        <mxCell id="sgeaB0DVFmvgLcvJb8wv-18" value="" style="shape=mxgraph.cisco.computers_and_peripherals.pc;sketch=0;html=1;pointerEvents=1;dashed=0;fillColor=#036897;strokeColor=#ffffff;strokeWidth=2;verticalLabelPosition=bottom;verticalAlign=top;align=center;outlineConnect=0;" vertex="1" parent="1">
          <mxGeometry x="610" y="790" width="78" height="70" as="geometry" />
        </mxCell>
        <mxCell id="sgeaB0DVFmvgLcvJb8wv-21" value="" style="shape=mxgraph.cisco.servers.fileserver;sketch=0;html=1;pointerEvents=1;dashed=0;fillColor=#036897;strokeColor=#ffffff;strokeWidth=2;verticalLabelPosition=bottom;verticalAlign=top;align=center;outlineConnect=0;" vertex="1" parent="1">
          <mxGeometry x="1170" y="90" width="69" height="92" as="geometry" />
        </mxCell>
        <mxCell id="sgeaB0DVFmvgLcvJb8wv-22" value="" style="shape=mxgraph.cisco.servers.fileserver;sketch=0;html=1;pointerEvents=1;dashed=0;fillColor=#036897;strokeColor=#ffffff;strokeWidth=2;verticalLabelPosition=bottom;verticalAlign=top;align=center;outlineConnect=0;" vertex="1" parent="1">
          <mxGeometry x="1170" y="310" width="69" height="92" as="geometry" />
        </mxCell>
        <mxCell id="sgeaB0DVFmvgLcvJb8wv-23" value="" style="shape=mxgraph.cisco.servers.fileserver;sketch=0;html=1;pointerEvents=1;dashed=0;fillColor=#036897;strokeColor=#ffffff;strokeWidth=2;verticalLabelPosition=bottom;verticalAlign=top;align=center;outlineConnect=0;" vertex="1" parent="1">
          <mxGeometry x="-85.5" y="108" width="69" height="92" as="geometry" />
        </mxCell>
        <mxCell id="sgeaB0DVFmvgLcvJb8wv-24" value="" style="shape=mxgraph.cisco.computers_and_peripherals.pc;sketch=0;html=1;pointerEvents=1;dashed=0;fillColor=#036897;strokeColor=#ffffff;strokeWidth=2;verticalLabelPosition=bottom;verticalAlign=top;align=center;outlineConnect=0;" vertex="1" parent="1">
          <mxGeometry x="-90" y="310" width="78" height="70" as="geometry" />
        </mxCell>
        <mxCell id="sgeaB0DVFmvgLcvJb8wv-26" style="edgeStyle=orthogonalEdgeStyle;rounded=0;orthogonalLoop=1;jettySize=auto;html=1;exitX=0.5;exitY=0;exitDx=0;exitDy=0;entryX=0.5;entryY=1;entryDx=0;entryDy=0;entryPerimeter=0;endArrow=none;endFill=0;" edge="1" parent="1" source="sgeaB0DVFmvgLcvJb8wv-5" target="sgeaB0DVFmvgLcvJb8wv-10">
          <mxGeometry relative="1" as="geometry" />
        </mxCell>
        <mxCell id="sgeaB0DVFmvgLcvJb8wv-27" style="edgeStyle=orthogonalEdgeStyle;rounded=0;orthogonalLoop=1;jettySize=auto;html=1;exitX=1;exitY=0.5;exitDx=0;exitDy=0;entryX=0;entryY=0.5;entryDx=0;entryDy=0;entryPerimeter=0;endArrow=none;endFill=0;" edge="1" parent="1" source="sgeaB0DVFmvgLcvJb8wv-5" target="sgeaB0DVFmvgLcvJb8wv-15">
          <mxGeometry relative="1" as="geometry" />
        </mxCell>
        <mxCell id="sgeaB0DVFmvgLcvJb8wv-28" style="edgeStyle=orthogonalEdgeStyle;rounded=0;orthogonalLoop=1;jettySize=auto;html=1;exitX=0;exitY=0.5;exitDx=0;exitDy=0;entryX=1;entryY=0.5;entryDx=0;entryDy=0;entryPerimeter=0;endArrow=none;endFill=0;" edge="1" parent="1" source="sgeaB0DVFmvgLcvJb8wv-5" target="sgeaB0DVFmvgLcvJb8wv-16">
          <mxGeometry relative="1" as="geometry" />
        </mxCell>
        <mxCell id="sgeaB0DVFmvgLcvJb8wv-30" style="edgeStyle=orthogonalEdgeStyle;rounded=0;orthogonalLoop=1;jettySize=auto;html=1;exitX=1;exitY=0;exitDx=0;exitDy=0;exitPerimeter=0;entryX=0;entryY=0.5;entryDx=0;entryDy=0;entryPerimeter=0;curved=1;endArrow=none;endFill=0;" edge="1" parent="1" target="sgeaB0DVFmvgLcvJb8wv-21">
          <mxGeometry relative="1" as="geometry">
            <mxPoint x="1021" y="215" as="sourcePoint" />
          </mxGeometry>
        </mxCell>
        <mxCell id="sgeaB0DVFmvgLcvJb8wv-31" style="edgeStyle=orthogonalEdgeStyle;rounded=0;orthogonalLoop=1;jettySize=auto;html=1;exitX=0.98;exitY=0.5;exitDx=0;exitDy=0;exitPerimeter=0;entryX=0;entryY=0.5;entryDx=0;entryDy=0;entryPerimeter=0;endArrow=none;endFill=0;" edge="1" parent="1" target="sgeaB0DVFmvgLcvJb8wv-2">
          <mxGeometry relative="1" as="geometry">
            <mxPoint x="1018.9800000000005" y="240" as="sourcePoint" />
          </mxGeometry>
        </mxCell>
        <mxCell id="sgeaB0DVFmvgLcvJb8wv-32" style="edgeStyle=orthogonalEdgeStyle;rounded=0;orthogonalLoop=1;jettySize=auto;html=1;exitX=0.87;exitY=0.74;exitDx=0;exitDy=0;exitPerimeter=0;entryX=0;entryY=0.5;entryDx=0;entryDy=0;entryPerimeter=0;curved=1;endArrow=none;endFill=0;" edge="1" parent="1" target="sgeaB0DVFmvgLcvJb8wv-22">
          <mxGeometry relative="1" as="geometry">
            <mxPoint x="1007.8699999999999" y="251.99999999999955" as="sourcePoint" />
          </mxGeometry>
        </mxCell>
        <mxCell id="sgeaB0DVFmvgLcvJb8wv-33" style="edgeStyle=orthogonalEdgeStyle;rounded=0;orthogonalLoop=1;jettySize=auto;html=1;exitX=0;exitY=0.5;exitDx=0;exitDy=0;exitPerimeter=0;entryX=0.98;entryY=0.5;entryDx=0;entryDy=0;entryPerimeter=0;endArrow=none;endFill=0;" edge="1" parent="1" source="sgeaB0DVFmvgLcvJb8wv-16">
          <mxGeometry relative="1" as="geometry">
            <mxPoint x="112.48000000000047" y="240" as="targetPoint" />
          </mxGeometry>
        </mxCell>
        <mxCell id="sgeaB0DVFmvgLcvJb8wv-34" style="edgeStyle=orthogonalEdgeStyle;rounded=0;orthogonalLoop=1;jettySize=auto;html=1;exitX=0.5;exitY=1;exitDx=0;exitDy=0;entryX=0.5;entryY=0;entryDx=0;entryDy=0;entryPerimeter=0;endArrow=none;endFill=0;" edge="1" parent="1" source="sgeaB0DVFmvgLcvJb8wv-5" target="sgeaB0DVFmvgLcvJb8wv-13">
          <mxGeometry relative="1" as="geometry" />
        </mxCell>
        <mxCell id="sgeaB0DVFmvgLcvJb8wv-36" style="edgeStyle=orthogonalEdgeStyle;rounded=0;orthogonalLoop=1;jettySize=auto;html=1;exitX=0;exitY=0.5;exitDx=0;exitDy=0;exitPerimeter=0;entryX=0.5;entryY=0;entryDx=0;entryDy=0;entryPerimeter=0;curved=1;endArrow=none;endFill=0;" edge="1" parent="1" target="sgeaB0DVFmvgLcvJb8wv-1">
          <mxGeometry relative="1" as="geometry">
            <mxPoint x="487.5" y="655" as="sourcePoint" />
          </mxGeometry>
        </mxCell>
        <mxCell id="sgeaB0DVFmvgLcvJb8wv-38" style="edgeStyle=orthogonalEdgeStyle;rounded=0;orthogonalLoop=1;jettySize=auto;html=1;exitX=0.5;exitY=0;exitDx=0;exitDy=0;exitPerimeter=0;entryX=0.98;entryY=0.5;entryDx=0;entryDy=0;entryPerimeter=0;curved=1;endArrow=none;endFill=0;" edge="1" parent="1" source="sgeaB0DVFmvgLcvJb8wv-18">
          <mxGeometry relative="1" as="geometry">
            <mxPoint x="586.48" y="655" as="targetPoint" />
            <Array as="points">
              <mxPoint x="649" y="655" />
            </Array>
          </mxGeometry>
        </mxCell>
        <mxCell id="sgeaB0DVFmvgLcvJb8wv-39" style="edgeStyle=orthogonalEdgeStyle;rounded=0;orthogonalLoop=1;jettySize=auto;html=1;exitX=0.16;exitY=0.23;exitDx=0;exitDy=0;exitPerimeter=0;entryX=0.5;entryY=1;entryDx=0;entryDy=0;entryPerimeter=0;curved=1;endArrow=none;endFill=0;" edge="1" parent="1" target="sgeaB0DVFmvgLcvJb8wv-23">
          <mxGeometry relative="1" as="geometry">
            <mxPoint x="29.659999999999854" y="226.5" as="sourcePoint" />
          </mxGeometry>
        </mxCell>
        <mxCell id="sgeaB0DVFmvgLcvJb8wv-41" style="edgeStyle=orthogonalEdgeStyle;rounded=0;orthogonalLoop=1;jettySize=auto;html=1;exitX=0;exitY=0.98;exitDx=0;exitDy=0;exitPerimeter=0;entryX=0.5;entryY=0;entryDx=0;entryDy=0;entryPerimeter=0;curved=1;endArrow=none;endFill=0;" edge="1" parent="1" target="sgeaB0DVFmvgLcvJb8wv-24">
          <mxGeometry relative="1" as="geometry">
            <mxPoint x="13.5" y="264" as="sourcePoint" />
          </mxGeometry>
        </mxCell>
        <mxCell id="sgeaB0DVFmvgLcvJb8wv-42" value="" style="sketch=0;points=[[0.015,0.015,0],[0.985,0.015,0],[0.985,0.985,0],[0.015,0.985,0],[0.25,0,0],[0.5,0,0],[0.75,0,0],[1,0.25,0],[1,0.5,0],[1,0.75,0],[0.75,1,0],[0.5,1,0],[0.25,1,0],[0,0.75,0],[0,0.5,0],[0,0.25,0]];verticalLabelPosition=bottom;html=1;verticalAlign=top;aspect=fixed;align=center;pointerEvents=1;shape=mxgraph.cisco19.rect;prIcon=l2_switch;fillColor=#FAFAFA;strokeColor=#005073;" vertex="1" parent="1">
          <mxGeometry x="508" y="630" width="60" height="60" as="geometry" />
        </mxCell>
        <mxCell id="sgeaB0DVFmvgLcvJb8wv-44" value="" style="sketch=0;points=[[0.015,0.015,0],[0.985,0.015,0],[0.985,0.985,0],[0.015,0.985,0],[0.25,0,0],[0.5,0,0],[0.75,0,0],[1,0.25,0],[1,0.5,0],[1,0.75,0],[0.75,1,0],[0.5,1,0],[0.25,1,0],[0,0.75,0],[0,0.5,0],[0,0.25,0]];verticalLabelPosition=bottom;html=1;verticalAlign=top;aspect=fixed;align=center;pointerEvents=1;shape=mxgraph.cisco19.rect;prIcon=l2_switch;fillColor=#FAFAFA;strokeColor=#005073;" vertex="1" parent="1">
          <mxGeometry x="940" y="212" width="60" height="60" as="geometry" />
        </mxCell>
        <mxCell id="sgeaB0DVFmvgLcvJb8wv-45" value="" style="sketch=0;points=[[0.015,0.015,0],[0.985,0.015,0],[0.985,0.985,0],[0.015,0.985,0],[0.25,0,0],[0.5,0,0],[0.75,0,0],[1,0.25,0],[1,0.5,0],[1,0.75,0],[0.75,1,0],[0.5,1,0],[0.25,1,0],[0,0.75,0],[0,0.5,0],[0,0.25,0]];verticalLabelPosition=bottom;html=1;verticalAlign=top;aspect=fixed;align=center;pointerEvents=1;shape=mxgraph.cisco19.rect;prIcon=l2_switch;fillColor=#FAFAFA;strokeColor=#005073;" vertex="1" parent="1">
          <mxGeometry x="50" y="212" width="60" height="60" as="geometry" />
        </mxCell>
      </root>
    </mxGraphModel>
  </diagram>
</mxfile>
